{
	"asset":{
		"generator":"Khronos glTF Blender I/O v4.1.63",
		"version":"2.0"
	},
	"extensionsUsed":[
		"KHR_materials_specular"
	],
	"scene":0,
	"scenes":[
		{
			"name":"Scene",
			"nodes":[
				0
			]
		}
	],
	"nodes":[
		{
			"mesh":0,
			"name":"Dog",
			"rotation":[
				0.7071068286895752,
				0,
				0,
				0.7071068286895752
			],
			"scale":[
				0.0744992047548294,
				0.0744992047548294,
				0.0744992047548294
			]
		}
	],
	"materials":[
		{
			"doubleSided":true,
			"extensions":{
				"KHR_materials_specular":{
					"specularFactor":0
				}
			},
			"name":"wire_086086086",
			"pbrMetallicRoughness":{
				"baseColorFactor":[
					0.800000011920929,
					0.800000011920929,
					0.800000011920929,
					1
				],
				"metallicFactor":0
			}
		}
	],
	"meshes":[
		{
			"name":"Low-Poly Dog",
			"primitives":[
				{
					"attributes":{
						"POSITION":0,
						"NORMAL":1,
						"TEXCOORD_0":2
					},
					"indices":3,
					"material":0
				}
			]
		}
	],
	"accessors":[
		{
			"bufferView":0,
			"componentType":5126,
			"count":1252,
			"max":[
				11.419099807739258,
				43.29290008544922,
				0
			],
			"min":[
				-11.419099807739258,
				-38.706600189208984,
				-72.90390014648438
			],
			"type":"VEC3"
		},
		{
			"bufferView":1,
			"componentType":5126,
			"count":1252,
			"type":"VEC3"
		},
		{
			"bufferView":2,
			"componentType":5126,
			"count":1252,
			"type":"VEC2"
		},
		{
			"bufferView":3,
			"componentType":5123,
			"count":1878,
			"type":"SCALAR"
		}
	],
	"bufferViews":[
		{
			"buffer":0,
			"byteLength":15024,
			"byteOffset":0,
			"target":34962
		},
		{
			"buffer":0,
			"byteLength":15024,
			"byteOffset":15024,
			"target":34962
		},
		{
			"buffer":0,
			"byteLength":10016,
			"byteOffset":30048,
			"target":34962
		},
		{
			"buffer":0,
			"byteLength":3756,
			"byteOffset":40064,
			"target":34963
		}
	],
	"buffers":[
		{
			"byteLength":43820,
			"uri":"Dog.bin"
		}
	]
}
